<svg xmlns="http://www.w3.org/2000/svg" viewBox="0 0 24 24" fill="currentColor"><path d="M12 1.5c-2.8 0-4.2 2.4-4.2 5.2 0 1-.2 1.8-.7 2.6-1.1 1.7-2.8 3.7-2.7 6.5 0 1.5.6 2.7 1.5 3.4-.3.5-.4 1-.1 1.5.4.7 1.5.8 2.5.2.9.8 2.2 1.3 3.7 1.3s2.8-.5 3.7-1.3c1 .6 2.1.5 2.5-.2.3-.5.2-1-.1-1.5.9-.7 1.5-1.9 1.5-3.4.1-2.8-1.6-4.8-2.7-6.5-.5-.8-.7-1.6-.7-2.6 0-2.8-1.4-5.2-4.2-5.2Zm-1.6 4.4c.5 0 .9.5.9 1.1 0 .7-.4 1.2-.9 1.2s-.9-.5-.9-1.2c0-.6.4-1.1.9-1.1Zm3.2 0c.5 0 .9.5.9 1.1 0 .7-.4 1.2-.9 1.2s-.9-.5-.9-1.2c0-.6.4-1.1.9-1.1ZM12 8.1c1 0 1.8.6 1.8 1.2 0 .7-.8 1.2-1.8 1.2s-1.8-.5-1.8-1.2c0-.6.8-1.2 1.8-1.2Zm-2.8 8.1c.7 0 1.3.8 1.3 1.8s-.6 1.8-1.3 1.8-1.3-.8-1.3-1.8.6-1.8 1.3-1.8Zm5.6 0c.7 0 1.3.8 1.3 1.8s-.6 1.8-1.3 1.8-1.3-.8-1.3-1.8.6-1.8 1.3-1.8Z"/></svg>
